<svg width="201" height="61" viewBox="0 0 201 61" fill="none" xmlns="http://www.w3.org/2000/svg">
<path d="M15.8252 14.5514C14.846 14.5514 14.05 13.7562 14.05 12.778C14.05 11.7998 14.846 11.0045 15.8252 11.0045C16.4174 11.0045 16.968 11.299 17.2978 11.7907L17.7043 12.3992L17.5679 13.1166C17.4069 13.9482 16.6745 14.5514 15.8252 14.5514Z" fill="url(#paint0_linear_14_187)"/>
<path d="M18.5095 12.861L18.0446 12.3304L18.2666 11.6584C18.4341 11.1498 18.9055 10.8087 19.4432 10.8087C20.1262 10.8087 20.6808 11.3639 20.6808 12.0463C20.6808 12.7287 20.1249 13.2839 19.4432 13.2839C19.086 13.2839 18.7458 13.1296 18.5108 12.861H18.5095Z" fill="url(#paint1_linear_14_187)"/>
<path d="M24.748 4.32463C24.7247 4.32982 24.7013 4.33631 24.6779 4.3415C24.7104 4.33242 24.7429 4.32463 24.7766 4.31815C24.7662 4.31815 24.7571 4.32204 24.7467 4.32334L24.748 4.32463ZM24.748 4.32463C24.7247 4.32982 24.7013 4.33631 24.6779 4.3415C24.7104 4.33242 24.7429 4.32463 24.7766 4.31815C24.7662 4.31815 24.7571 4.32204 24.7467 4.32334L24.748 4.32463ZM24.748 4.32463C24.7247 4.32982 24.7013 4.33631 24.6779 4.3415C24.7104 4.33242 24.7429 4.32463 24.7766 4.31815C24.7662 4.31815 24.7571 4.32204 24.7467 4.32334L24.748 4.32463ZM31.5645 2.96115C29.1958 2.96115 26.8804 3.26343 24.6571 3.83684C24.6468 3.84073 24.639 3.84203 24.6286 3.84463C24.5857 3.855 24.5416 3.86798 24.4987 3.87836C24.4987 3.87836 24.4978 3.87836 24.4961 3.87836C19.5886 5.17697 15.1474 7.80534 11.658 11.443L12.967 12.7507C12.967 12.6625 12.9709 12.5769 12.98 12.4926C12.98 12.49 12.98 12.4887 12.98 12.4861C12.9838 12.4381 12.9903 12.3901 12.9968 12.3434C13.0007 12.3226 13.0033 12.3019 13.0085 12.2811C13.0124 12.2551 13.0176 12.2279 13.0228 12.202C13.0397 12.1163 13.0618 12.032 13.0864 11.9477C13.0981 11.9075 13.1111 11.8685 13.1267 11.8296C13.1267 11.8244 13.1293 11.8192 13.1306 11.8141C13.1462 11.7725 13.1605 11.731 13.1786 11.6908C13.1903 11.661 13.2033 11.6311 13.2176 11.6013C13.2215 11.5896 13.228 11.5779 13.2332 11.5663C13.2358 11.5624 13.2371 11.5559 13.241 11.552C13.2579 11.5144 13.2773 11.4755 13.2981 11.4391C13.3111 11.4132 13.3267 11.3872 13.341 11.3613C13.3579 11.3315 13.3747 11.3029 13.3929 11.2744C13.4085 11.2471 13.4241 11.2212 13.4423 11.1965C13.454 11.1771 13.4682 11.1576 13.4825 11.1382C13.5176 11.0889 13.5539 11.0383 13.5929 10.9903C13.6098 10.9669 13.6293 10.9449 13.65 10.9228C13.6656 10.9033 13.6812 10.8852 13.6994 10.8657C13.7241 10.8372 13.75 10.8086 13.7799 10.7814C13.8046 10.7542 13.8293 10.7295 13.8565 10.7061C13.863 10.6984 13.8682 10.6932 13.8747 10.688C13.9851 10.5842 14.102 10.4921 14.2266 10.4065C14.2643 10.3805 14.3032 10.3572 14.3435 10.3325C14.3721 10.3157 14.4006 10.2975 14.4305 10.2832C14.4474 10.2728 14.4656 10.2625 14.4825 10.2534C14.5435 10.2197 14.6058 10.1898 14.6721 10.1613C14.6928 10.1509 14.7149 10.1431 14.7357 10.134C14.8006 10.1068 14.8668 10.0821 14.9344 10.0601C14.9642 10.0497 14.9915 10.0419 15.0214 10.0328C15.0564 10.0225 15.0915 10.0121 15.1292 10.003C15.1655 9.99262 15.2032 9.98614 15.2396 9.97835C15.2746 9.97057 15.3097 9.96408 15.3447 9.95889C15.3681 9.955 15.3902 9.94981 15.4149 9.94722H15.4175C15.4551 9.94203 15.4941 9.93684 15.5343 9.93295C15.5694 9.92906 15.6045 9.92646 15.6382 9.92387C15.6603 9.92127 15.6811 9.91997 15.7019 9.91997C15.7071 9.91997 15.7123 9.91997 15.7187 9.91997C15.7551 9.91997 15.7902 9.91738 15.8265 9.91738C16.4992 9.91738 17.1394 10.1535 17.6446 10.5686C18.077 10.0419 18.7302 9.72019 19.4432 9.72019C20.7262 9.72019 21.7677 10.7619 21.7677 12.0437C21.7677 12.0748 21.7677 12.1073 21.7651 12.1371C21.7651 12.1462 21.7651 12.154 21.7651 12.163C21.7651 12.1968 21.7612 12.2292 21.7573 12.2629C21.7573 12.2746 21.7547 12.2863 21.7534 12.298C21.7495 12.3317 21.7456 12.3641 21.7404 12.3966C21.7352 12.4355 21.7288 12.4731 21.7197 12.512C21.7132 12.5483 21.7041 12.5847 21.6963 12.621C21.6846 12.6664 21.6716 12.7105 21.6573 12.7546C21.6469 12.7845 21.6379 12.813 21.6275 12.8428C21.6171 12.8688 21.608 12.8947 21.5976 12.9207C21.5911 12.9388 21.5833 12.957 21.5742 12.9739C21.5638 12.9998 21.5508 13.0258 21.5392 13.0504C21.5223 13.0841 21.5054 13.1179 21.4872 13.1503C21.4703 13.1827 21.4509 13.2152 21.4314 13.2476C21.4119 13.2787 21.3911 13.3112 21.3703 13.341C21.3496 13.3721 21.3275 13.4033 21.3067 13.4318C21.2833 13.4617 21.2613 13.4915 21.2366 13.52C21.2249 13.5356 21.2132 13.5486 21.2002 13.5628C21.1885 13.5771 21.1768 13.5914 21.1639 13.6057C21.1067 13.6679 21.0483 13.725 20.9872 13.7795C20.9652 13.799 20.9444 13.8184 20.9223 13.8366C20.895 13.8599 20.8665 13.882 20.8379 13.9027C20.808 13.9274 20.7743 13.9507 20.7418 13.9728C20.7223 13.9858 20.7028 13.9987 20.6821 14.0117C20.6652 14.0221 20.6496 14.0325 20.6314 14.0416C20.5145 14.1116 20.3886 14.1713 20.26 14.2206C20.2301 14.231 20.199 14.2426 20.1691 14.2517C20.1418 14.2621 20.1146 14.2686 20.0873 14.2764C20.0652 14.2829 20.0444 14.2893 20.0224 14.2932C19.9899 14.3036 19.9561 14.3101 19.9224 14.3166C19.9146 14.3192 19.9055 14.3205 19.899 14.3205C19.8704 14.327 19.8419 14.3322 19.812 14.3373L19.7925 14.3412C19.7639 14.3451 19.7354 14.3503 19.7055 14.3516C19.6588 14.3568 19.612 14.362 19.564 14.3633C19.5549 14.3633 19.5471 14.3633 19.538 14.3633C19.5081 14.3633 19.4757 14.3659 19.4445 14.3659C19.0627 14.3659 18.6939 14.2725 18.3627 14.0999C17.8848 15.0145 16.9278 15.6243 15.8538 15.6334L18.7692 18.5459C19.6652 17.0682 20.7808 15.466 22.1391 13.8911C22.2222 13.7951 22.3066 13.6991 22.3898 13.6031C22.4521 13.533 22.5144 13.463 22.5768 13.3929C24.5208 11.2342 26.6583 9.4724 28.9634 8.12967C29.027 8.09205 29.0919 8.05443 29.1556 8.0194C29.2218 7.98048 29.288 7.94286 29.3556 7.90524C29.962 7.56664 30.5801 7.25658 31.2074 6.97636C34.5163 5.49871 38.1199 4.83189 41.9535 4.98627H41.9561C38.6744 3.65651 35.1331 2.96115 31.5645 2.96115ZM29.6607 6.43797C29.6607 6.44445 29.6607 6.44964 29.6607 6.45613C29.6581 6.48856 29.6555 6.521 29.6503 6.55343C29.6503 6.55862 29.6503 6.56381 29.6477 6.57029C29.6438 6.60662 29.6374 6.64165 29.6309 6.67667C29.6218 6.72338 29.6101 6.77008 29.5971 6.81419C29.5893 6.84403 29.5802 6.87516 29.5685 6.90371C29.5581 6.93614 29.5464 6.96727 29.5335 6.99841C29.5296 7.00619 29.527 7.01528 29.5231 7.02176C29.5101 7.0529 29.4945 7.08533 29.4802 7.11517C29.4646 7.1476 29.4478 7.17874 29.4309 7.21117C29.4283 7.21506 29.4257 7.22025 29.4218 7.22544C29.4075 7.25009 29.3919 7.27474 29.3763 7.29939C29.3517 7.33831 29.3257 7.37593 29.2971 7.41226C29.2763 7.4408 29.2543 7.46804 29.2309 7.49399C29.2088 7.51863 29.188 7.54328 29.1634 7.56793C29.114 7.62112 29.0595 7.67172 29.001 7.71713C28.9867 7.7288 28.9712 7.74048 28.9569 7.75345C28.9348 7.77031 28.9127 7.78588 28.8893 7.80275C28.8608 7.82221 28.8322 7.84167 28.801 7.85983C28.7699 7.87799 28.7374 7.89616 28.7049 7.91432C28.6322 7.95194 28.5556 7.98567 28.4764 8.01421C28.4387 8.02718 28.3998 8.04016 28.3608 8.05054C28.3413 8.05573 28.3219 8.06091 28.3024 8.0661C28.2426 8.08167 28.1816 8.09335 28.1193 8.10243C28.0972 8.10632 28.0751 8.10762 28.053 8.11021C28.0271 8.1141 28.0024 8.1154 27.9764 8.1167C27.9414 8.11929 27.9063 8.12059 27.8699 8.12059C27.5998 8.12059 27.3375 8.05962 27.0998 7.94675C26.6739 8.51757 25.9947 8.87174 25.2532 8.87174C23.9845 8.87174 22.9508 7.83907 22.9508 6.57159C22.9508 6.54175 22.9508 6.51062 22.9534 6.48078C22.9534 6.473 22.9534 6.46391 22.9534 6.45743C22.956 6.41332 22.9585 6.36791 22.9637 6.3238C22.9663 6.29656 22.9689 6.27061 22.9728 6.24467C22.9767 6.2278 22.978 6.20964 22.9819 6.19277C22.9923 6.12661 23.0066 6.06304 23.0235 5.99818C23.0404 5.92812 23.0624 5.86066 23.0871 5.7932C23.1001 5.75558 23.1157 5.71666 23.1313 5.67774C23.1352 5.66736 23.1391 5.65828 23.1443 5.6492C23.1481 5.63882 23.1533 5.62714 23.1585 5.61676C23.1676 5.5973 23.1767 5.57655 23.1871 5.55709C23.2715 5.38584 23.3767 5.22627 23.5001 5.08097C23.5403 5.03427 23.5819 4.99016 23.6234 4.94735L23.6273 4.94346C23.652 4.91881 23.678 4.89416 23.7053 4.86951C23.7299 4.84616 23.7559 4.8228 23.7832 4.79945C23.9325 4.67621 24.0974 4.57112 24.2741 4.48939C24.3013 4.47642 24.3286 4.46474 24.3559 4.45307C24.3857 4.4401 24.4182 4.42842 24.4481 4.41674C24.4572 4.41285 24.4649 4.40896 24.4714 4.40766C24.5026 4.39599 24.5351 4.38431 24.5675 4.37523C24.5844 4.36874 24.6039 4.36485 24.6221 4.35836C24.639 4.35318 24.6584 4.34799 24.6766 4.3428C24.7091 4.33372 24.7416 4.32593 24.7753 4.31944C24.8091 4.31166 24.8428 4.30517 24.8779 4.29998C24.9065 4.29609 24.9363 4.2909 24.9662 4.28831C24.9922 4.28442 25.0195 4.28182 25.0467 4.27923C25.0753 4.27534 25.1039 4.27404 25.1337 4.27274C25.1727 4.27015 25.213 4.26885 25.2519 4.26885C25.8376 4.26885 26.3921 4.49199 26.8116 4.87729C27.1141 4.65675 27.4842 4.53221 27.8686 4.53221C28.8582 4.53221 29.6633 5.33525 29.6633 6.3251C29.6633 6.36272 29.6633 6.40035 29.6594 6.43667L29.6607 6.43797ZM24.748 4.32463C24.7247 4.32982 24.7013 4.33631 24.6779 4.3415C24.7104 4.33242 24.7429 4.32463 24.7766 4.31815C24.7662 4.31815 24.7571 4.32204 24.7467 4.32334L24.748 4.32463ZM24.748 4.32463C24.7247 4.32982 24.7013 4.33631 24.6779 4.3415C24.7104 4.33242 24.7429 4.32463 24.7766 4.31815C24.7662 4.31815 24.7571 4.32204 24.7467 4.32334L24.748 4.32463ZM24.748 4.32463C24.7247 4.32982 24.7013 4.33631 24.6779 4.3415C24.7104 4.33242 24.7429 4.32463 24.7766 4.31815C24.7662 4.31815 24.7571 4.32204 24.7467 4.32334L24.748 4.32463Z" fill="url(#paint2_linear_14_187)"/>
<path d="M26.3115 5.97354L26.5804 6.44577L26.4037 6.9621C26.2362 7.45378 25.7739 7.7846 25.2532 7.7846C24.5831 7.7846 24.0377 7.23973 24.0377 6.57031C24.0377 5.90089 24.5818 5.35602 25.2532 5.35602C25.6895 5.35602 26.096 5.59213 26.3115 5.97354Z" fill="url(#paint3_linear_14_187)"/>
<path d="M28.5777 6.32639C28.5777 6.71559 28.2608 7.03343 27.8699 7.03343C27.6635 7.03343 27.4674 6.94262 27.3323 6.78435L27.0103 6.40683L27.257 5.97612C27.3817 5.75557 27.618 5.61935 27.8699 5.61935C28.2595 5.61935 28.5777 5.9359 28.5777 6.32639Z" fill="url(#paint4_linear_14_187)"/>
<path d="M49.4517 9.54764C44.6339 7.24879 40.2069 6.82197 36.2694 8.28016C32.5242 9.66829 29.9607 12.5367 28.4686 14.6993C27.1492 16.6128 26.4259 18.2942 26.1934 18.8806C24.639 19.598 23.2482 20.628 22.1041 21.8813L19.5666 19.3463C20.4652 17.8349 21.5976 16.1821 22.9859 14.5773C28.8076 7.84426 36.1526 5.07708 44.817 6.34715L44.8209 6.34975C46.4701 7.25528 48.022 8.32557 49.4517 9.54764Z" fill="url(#paint5_linear_14_187)"/>
<path d="M46.1987 15.1105L45.1169 16.1912C44.2793 15.2947 43.2183 14.6642 42.0496 14.3594C41.5184 14.2206 40.9639 14.1492 40.399 14.1492C39.6303 14.1492 38.8848 14.2854 38.1901 14.5384C37.494 14.7901 36.8512 15.1598 36.2837 15.6256C35.6876 16.1159 35.1773 16.714 34.7851 17.399C34.6669 17.604 34.5604 17.8167 34.4643 18.036C33.8189 17.8868 33.1605 17.7869 32.4982 17.7389L33.9826 16.9138L33.9579 15.2143L35.6383 14.9445L36.1941 13.3371L37.8641 13.6575L38.9381 12.3394L40.399 13.2151L41.8587 12.3394L42.9248 13.6497L42.9313 13.6575L44.6027 13.3371L45.1585 14.9445L46.1974 15.1118L46.1987 15.1105Z" fill="url(#paint6_linear_14_187)"/>
<path d="M44.3495 16.9579L40.2289 21.0743C38.8745 19.8315 37.2668 18.8909 35.5253 18.3266C36.4032 16.4545 38.2966 15.2338 40.4003 15.2338C41.9171 15.2338 43.3326 15.8565 44.3495 16.9579Z" fill="url(#paint7_linear_14_187)"/>
<path d="M50.1815 11.1317L47.148 14.1622L45.974 13.9741L45.3221 12.093L43.3664 12.4692L42.1093 10.9241L40.4003 11.9477L38.6913 10.9241L37.433 12.4692L35.476 12.093L34.8266 13.9741L32.8592 14.2893L32.8891 16.2781L31.1477 17.2472L31.3243 17.7065C30.0581 17.7285 28.8218 17.9335 27.6349 18.3162C28.7101 16.0758 31.5619 11.1797 36.659 9.29467C40.6237 7.8274 45.1715 8.44622 50.1841 11.1317H50.1815Z" fill="url(#paint8_linear_14_187)"/>
<path d="M15.324 30.9132H12.2358V27.0822C11.6203 27.0537 11.0138 27.0459 10.4178 27.0589V30.9145H10.2399V31.4542C11.1632 31.4542 11.6359 32.0821 11.9787 32.5401C12.3008 32.9682 12.4852 33.1913 12.8488 33.1913C13.2124 33.1913 13.3981 32.9682 13.7189 32.5388C14.05 32.0977 14.4993 31.4996 15.359 31.4568L15.324 30.9145V30.9132ZM17.5212 36.0454C16.0759 36.0454 15.5824 36.9873 15.5629 37.0275L15.2603 37.6619H19.1497C18.9069 36.9925 18.4069 36.0454 17.5212 36.0454ZM14.6993 37.1819C14.6812 37.165 12.8241 35.4344 10.6619 35.4344C8.0452 35.4344 7.08292 36.8251 6.74139 37.6619H15.1941L14.698 37.1819H14.6993ZM17.5212 36.0454C16.0759 36.0454 15.5824 36.9873 15.5629 37.0275L15.2603 37.6619H19.1497C18.9069 36.9925 18.4069 36.0454 17.5212 36.0454ZM14.6993 37.1819C14.6812 37.165 12.8241 35.4344 10.6619 35.4344C8.0452 35.4344 7.08292 36.8251 6.74139 37.6619H15.1941L14.698 37.1819H14.6993ZM11.1086 33.19C10.7879 32.7606 10.6035 32.5388 10.2386 32.5388C9.87366 32.5388 9.68925 32.7619 9.3685 33.19C9.02436 33.648 8.55296 34.2759 7.62834 34.2759C6.70373 34.2759 6.23233 33.648 5.88949 33.19C5.85573 33.1459 5.82196 33.1005 5.7882 33.0577C5.60509 32.8203 5.65184 32.4791 5.88949 32.2962C6.12714 32.1132 6.46868 32.1586 6.65178 32.396C6.68814 32.4428 6.72321 32.4908 6.75827 32.5375C7.08033 32.9669 7.26473 33.19 7.62834 33.19C7.99196 33.19 8.17766 32.9669 8.49842 32.5388C8.84255 32.0808 9.31395 31.4529 10.2386 31.4529V30.9132H7.32966V27.308C5.96481 27.5039 4.87527 27.7841 4.11038 28.0241C4.03766 28.8466 4 29.6769 4 30.4994C4 33.3872 4.44802 36.1725 5.27654 38.7892L5.409 38.7477L5.48562 38.1367C5.48952 38.0991 6.01676 34.3485 10.6606 34.3485C11.1502 34.3485 11.6229 34.4186 12.0657 34.5314L12.1683 34.1448C11.6684 33.936 11.3554 33.5195 11.1073 33.19H11.1086ZM17.5212 36.0454C16.0759 36.0454 15.5824 36.9873 15.5629 37.0275L15.2603 37.6619H19.1497C18.9069 36.9925 18.4069 36.0454 17.5212 36.0454ZM14.6993 37.1819C14.6812 37.165 12.8241 35.4344 10.6619 35.4344C8.0452 35.4344 7.08292 36.8251 6.74139 37.6619H15.1941L14.698 37.1819H14.6993ZM17.5212 36.0454C16.0759 36.0454 15.5824 36.9873 15.5629 37.0275L15.2603 37.6619H19.1497C18.9069 36.9925 18.4069 36.0454 17.5212 36.0454ZM10.6619 35.4331C8.0452 35.4331 7.08292 36.8238 6.74139 37.6606H15.1941L14.698 37.1806C14.6799 37.1637 12.8228 35.4331 10.6606 35.4331H10.6619ZM10.6619 34.3472C11.1515 34.3472 11.6242 34.4173 12.067 34.5301L12.1696 34.1435C11.6697 33.9347 11.3567 33.5182 11.1086 33.1887C10.7879 32.7593 10.6035 32.5375 10.2386 32.5375C9.87366 32.5375 9.68925 32.7606 9.3685 33.1887C9.02436 33.6467 8.55296 34.2746 7.62834 34.2746C6.70373 34.2746 6.23233 33.6467 5.88949 33.1887C5.85573 33.1446 5.82196 33.0992 5.7882 33.0564C5.60509 32.819 5.65184 32.4778 5.88949 32.2949C6.12714 32.1119 6.46868 32.1573 6.65178 32.3948C6.68814 32.4415 6.72321 32.4895 6.75827 32.5362C7.08033 32.9656 7.26473 33.1887 7.62834 33.1887C7.99196 33.1887 8.17766 32.9656 8.49842 32.5375C8.84255 32.0795 9.31395 31.4516 10.2386 31.4516V30.9119H7.32966V27.3067C5.96481 27.5026 4.87527 27.7828 4.11038 28.0228C4.03766 28.8453 4 29.6756 4 30.4981C4 33.3859 4.44802 36.1713 5.27654 38.7879L5.409 38.7464L5.48562 38.1354C5.48952 38.0978 6.01676 34.3472 10.6606 34.3472H10.6619ZM17.5212 36.0454C16.0759 36.0454 15.5824 36.9873 15.5629 37.0275L15.2603 37.6619H19.1497C18.9069 36.9925 18.4069 36.0454 17.5212 36.0454ZM10.6619 35.4331C8.0452 35.4331 7.08292 36.8238 6.74139 37.6606H15.1941L14.698 37.1806C14.6799 37.1637 12.8228 35.4331 10.6606 35.4331H10.6619ZM40.2289 39.9231C38.1368 41.847 35.5097 43.0016 32.6917 43.2442C32.6618 43.2481 32.6346 43.2494 32.6047 43.252C32.2619 43.2806 31.9138 43.2948 31.5645 43.2948C28.0323 43.2948 24.8299 41.86 22.5105 39.5417C21.6405 38.6725 20.895 37.68 20.3042 36.5929C20.2652 36.5202 20.2263 36.4476 20.1873 36.3736C19.2718 34.6132 18.7549 32.6166 18.7549 30.4994C18.7549 29.7041 18.8289 28.9114 18.9731 28.1344C17.7485 27.8113 16.5265 27.5583 15.324 27.3806V30.9132H12.2358V27.0822C11.6203 27.0537 11.0138 27.0459 10.4178 27.0589V30.9145H7.32966V27.3093C5.96481 27.5052 4.87527 27.7854 4.11038 28.0254C4.03766 28.8479 4 29.6782 4 30.5007C4 33.3885 4.44802 36.1738 5.27654 38.7905C5.53627 39.6143 5.83365 40.42 6.1687 41.2074C7.56471 44.5 9.58407 47.467 12.0813 49.9618C17.0706 54.95 23.9637 58.0389 31.5645 58.0389C38.7433 58.0389 45.5065 55.3132 50.6672 50.3535L40.2289 39.927V39.9231ZM5.88949 32.2975C6.12714 32.1145 6.46868 32.1599 6.65178 32.3973C6.68814 32.444 6.72321 32.4921 6.75827 32.5388C7.08033 32.9682 7.26473 33.1913 7.62834 33.1913C7.99196 33.1913 8.17766 32.9682 8.49842 32.5401C8.84255 32.0821 9.31395 31.4542 10.2386 31.4542C11.1632 31.4542 11.6346 32.0821 11.9774 32.5401C12.2995 32.9682 12.4839 33.1913 12.8475 33.1913C13.2111 33.1913 13.3968 32.9682 13.7176 32.5388C14.0487 32.0977 14.498 31.4996 15.3577 31.4568C15.3902 31.4542 15.424 31.4529 15.4577 31.4529C16.381 31.4529 16.8537 32.0808 17.1979 32.5388C17.242 32.5984 17.2875 32.6594 17.3342 32.7178C17.5199 32.9539 17.4771 33.2951 17.242 33.4793C17.0057 33.6635 16.6641 33.622 16.4797 33.3859C16.4291 33.3223 16.3784 33.2562 16.3304 33.19C16.0083 32.7619 15.8239 32.5388 15.4603 32.5388C15.0967 32.5388 14.911 32.7619 14.5902 33.19C14.2461 33.648 13.7734 34.2759 12.8501 34.2759C12.5904 34.2759 12.367 34.2253 12.1709 34.1448C11.6709 33.936 11.358 33.5195 11.1099 33.19C10.7892 32.7606 10.6048 32.5388 10.2399 32.5388C9.87496 32.5388 9.69055 32.7619 9.36979 33.19C9.02566 33.648 8.55426 34.2759 7.62964 34.2759C6.70503 34.2759 6.23363 33.648 5.89079 33.19C5.85703 33.1459 5.82326 33.1005 5.7895 33.0577C5.60639 32.8203 5.65314 32.4791 5.89079 32.2962L5.88949 32.2975ZM5.409 38.7477L5.48562 38.1367C5.48952 38.0991 6.01676 34.3485 10.6606 34.3485C11.1502 34.3485 11.6229 34.4186 12.0657 34.5314C12.1086 34.5418 12.1514 34.5535 12.1943 34.5652C12.2177 34.5717 12.2397 34.5781 12.2631 34.5859C12.2865 34.5924 12.3073 34.5989 12.3293 34.6067C12.3527 34.6145 12.3774 34.621 12.4008 34.63C13.5332 34.9816 14.4539 35.5978 14.9759 36.0013C15.3993 35.5395 16.194 34.9596 17.5186 34.9596C18.6835 34.9596 19.4081 35.7613 19.8406 36.554C19.8523 36.5773 19.8652 36.6007 19.8769 36.624C19.8886 36.6474 19.9016 36.672 19.9133 36.6941C20.2626 37.3907 20.3938 38.0446 20.4042 38.1017L20.5275 38.7464H5.409V38.7477ZM8.53348 42.1285C8.11922 41.6849 7.8582 41.4332 7.31278 41.4332C7.06994 41.4332 6.86346 41.2736 6.79333 41.0518C6.77775 41.0012 6.76996 40.9467 6.76996 40.8896C6.76996 40.5899 7.0128 40.3473 7.31278 40.3473C8.35817 40.3473 8.8958 40.9246 9.32824 41.3891C9.7425 41.8328 10.0035 42.0844 10.5489 42.0844C11.0944 42.0844 11.3554 41.834 11.7696 41.3891C12.2008 40.9246 12.7384 40.3473 13.7851 40.3473C14.8318 40.3473 15.3694 40.9246 15.8006 41.3891C16.2148 41.8328 16.4758 42.0844 17.0213 42.0844C17.5667 42.0844 17.8277 41.834 18.242 41.3891C18.6744 40.9246 19.212 40.3473 20.2574 40.3473C21.3028 40.3473 21.8404 40.9246 22.2729 41.3891C22.6871 41.8328 22.9482 42.0844 23.4936 42.0844C23.7936 42.0844 24.0364 42.327 24.0364 42.6267C24.0364 42.9264 23.7936 43.169 23.4936 43.169C22.4482 43.169 21.9106 42.5917 21.4781 42.1272C21.0639 41.6836 20.8028 41.4319 20.2574 41.4319C19.712 41.4319 19.451 41.6836 19.0367 42.1272C18.6043 42.5904 18.0667 43.169 17.0213 43.169C15.9759 43.169 15.4382 42.5917 15.0058 42.1272C14.5915 41.6836 14.3318 41.4319 13.7851 41.4319C13.2384 41.4319 12.9787 41.6836 12.5657 42.1272C12.3358 42.3737 12.0761 42.6514 11.7268 42.8589C11.4177 43.0419 11.0398 43.169 10.5502 43.169C9.50485 43.169 8.96722 42.5917 8.53478 42.1272L8.53348 42.1285ZM11.6917 45.2434C11.3917 45.2434 11.1489 45.0008 11.1489 44.7011C11.1489 44.4014 11.3917 44.1588 11.6917 44.1588H11.6995C12.802 44.1614 13.3812 44.7271 13.8461 45.1824C14.2695 45.5963 14.5747 45.896 15.2396 45.896C15.9045 45.896 16.2096 45.5963 16.633 45.1824C17.0992 44.7258 17.6784 44.1588 18.7874 44.1588C19.8964 44.1588 20.4756 44.7258 20.9418 45.1824C21.3651 45.5963 21.6703 45.896 22.3352 45.896C23.0001 45.896 23.3053 45.5963 23.7286 45.1824C24.1935 44.7258 24.774 44.1588 25.883 44.1588C26.9921 44.1588 27.5713 44.7258 28.0375 45.1824C28.4608 45.5963 28.766 45.896 29.4309 45.896C30.0958 45.896 30.4009 45.5963 30.8243 45.1824C31.2606 44.7556 31.7944 44.2328 32.767 44.1666C32.8359 44.1614 32.9047 44.1588 32.9774 44.1588C34.0864 44.1588 34.6669 44.7258 35.1318 45.1824C35.5552 45.5963 35.8616 45.896 36.5265 45.896C37.1914 45.896 37.4966 45.5963 37.92 45.1811C38.3862 44.7258 38.9653 44.1588 40.0744 44.1588C41.1834 44.1588 41.7639 44.7258 42.2301 45.1824C42.6534 45.5963 42.9586 45.896 43.6235 45.896C43.9235 45.896 44.1663 46.1386 44.1663 46.4382C44.1663 46.7379 43.9235 46.9805 43.6235 46.9805C42.5145 46.9805 41.934 46.4123 41.4691 45.9569C41.0457 45.5418 40.7393 45.2434 40.0744 45.2434C39.4095 45.2434 39.1043 45.5418 38.6809 45.9569C38.2147 46.4123 37.6356 46.9805 36.5265 46.9805C35.4175 46.9805 34.837 46.4123 34.3708 45.9569C33.9475 45.5418 33.6423 45.2434 32.9774 45.2434C32.3125 45.2434 32.0073 45.5418 31.584 45.9569C31.1191 46.4123 30.5386 46.9805 29.4296 46.9805C28.3206 46.9805 27.7401 46.4123 27.2752 45.9569C26.8518 45.5418 26.5466 45.2434 25.8817 45.2434C25.2169 45.2434 24.9117 45.5418 24.4883 45.9569C24.0221 46.4123 23.4429 46.9805 22.3339 46.9805C21.2249 46.9805 20.6444 46.4123 20.1795 45.9569C19.7562 45.5418 19.451 45.2434 18.7861 45.2434C18.1212 45.2434 17.816 45.5418 17.3927 45.9569C16.9278 46.4123 16.3473 46.9805 15.2383 46.9805C14.1292 46.9805 13.5501 46.4123 13.0838 45.9569C12.6605 45.5418 12.3553 45.2434 11.6904 45.2434H11.6917ZM39.0887 54.1262C38.9121 54.3688 38.5719 54.4245 38.329 54.2494C38.0576 54.0535 37.7252 53.8719 37.1434 53.8719C36.4071 53.8719 36.0642 54.1534 35.6279 54.5089C35.1461 54.902 34.5474 55.391 33.4241 55.391C32.3008 55.391 31.7022 54.902 31.2204 54.5089C30.7853 54.1521 30.4412 53.8719 29.7049 53.8719C28.9686 53.8719 28.6244 54.1534 28.1894 54.5089C27.7089 54.902 27.1102 55.391 25.9869 55.391C24.8636 55.391 24.265 54.902 23.7832 54.5089C23.3468 54.1521 23.004 53.8719 22.2677 53.8719C21.9677 53.8719 21.7249 53.6293 21.7249 53.3296C21.7249 53.0299 21.9677 52.7873 22.2677 52.7873C23.391 52.7873 23.9897 53.2764 24.4701 53.6695C24.9065 54.0263 25.2506 54.3065 25.9856 54.3065C26.7207 54.3065 27.0648 54.025 27.5011 53.6695C27.9829 53.2764 28.5816 52.7873 29.7049 52.7873C30.8282 52.7873 31.4269 53.2764 31.9086 53.6695C32.3437 54.0263 32.6878 54.3065 33.4241 54.3065C34.1605 54.3065 34.5046 54.025 34.9396 53.6695C35.4201 53.2764 36.0188 52.7873 37.1421 52.7873C38.0394 52.7873 38.5874 53.0987 38.964 53.3698C39.2069 53.5463 39.2614 53.8861 39.0874 54.1275L39.0887 54.1262ZM45.5623 51.2228C44.5014 51.2228 43.9533 50.6467 43.5131 50.1862C43.1261 49.7788 42.8456 49.4856 42.2509 49.4856C41.6561 49.4856 41.3756 49.7788 40.9886 50.1862C40.5471 50.648 39.999 51.2228 38.9394 51.2228C37.8797 51.2228 37.3304 50.6467 36.8902 50.1862C36.5032 49.7788 36.2227 49.4856 35.6279 49.4856C35.0331 49.4856 34.7526 49.7788 34.3656 50.1862C33.9241 50.648 33.3761 51.2228 32.3164 51.2228C31.2567 51.2228 30.7074 50.6467 30.2672 50.1862C29.8802 49.7788 29.5997 49.4856 29.0049 49.4856C28.4102 49.4856 28.1297 49.7788 27.7427 50.1862C27.3024 50.648 26.7544 51.2228 25.6934 51.2228C24.6325 51.2228 24.0845 50.6467 23.6442 50.1862C23.2572 49.7788 22.978 49.4856 22.382 49.4856C21.7859 49.4856 21.508 49.7788 21.1197 50.1862C20.6795 50.648 20.1315 51.2228 19.0705 51.2228C18.0095 51.2228 17.4615 50.6467 17.0213 50.1862C16.633 49.7788 16.3538 49.4856 15.759 49.4856C15.4577 49.4856 15.2162 49.243 15.2162 48.9434C15.2162 48.6437 15.459 48.4011 15.759 48.4011C16.82 48.4011 17.368 48.9771 17.8082 49.4376C18.1952 49.845 18.4757 50.1382 19.0705 50.1382C19.6653 50.1382 19.9458 49.845 20.3327 49.4376C20.773 48.9758 21.321 48.4011 22.382 48.4011C23.4429 48.4011 23.991 48.9771 24.4312 49.4376C24.8182 49.8437 25.0987 50.1382 25.6934 50.1382C26.2882 50.1382 26.5687 49.8437 26.9557 49.4376C27.3959 48.9758 27.9453 48.4011 29.0049 48.4011C30.0646 48.4011 30.6139 48.9771 31.0542 49.4376C31.4424 49.845 31.7216 50.1382 32.3164 50.1382C32.9112 50.1382 33.1917 49.8437 33.5787 49.4376C34.0202 48.9758 34.5682 48.4011 35.6279 48.4011C36.6876 48.4011 37.2369 48.9771 37.6771 49.4376C38.0641 49.845 38.3446 50.1382 38.9394 50.1382C39.5341 50.1382 39.8146 49.8437 40.2016 49.4376C40.6419 48.9758 41.1899 48.4011 42.2509 48.4011C43.3118 48.4011 43.8598 48.9771 44.3001 49.4376C44.6884 49.8437 44.9676 50.1382 45.5623 50.1382C45.8623 50.1382 46.1052 50.3808 46.1052 50.6805C46.1052 50.9802 45.8623 51.2228 45.5623 51.2228ZM14.6993 37.1819C14.6812 37.165 12.8241 35.4344 10.6619 35.4344C8.0452 35.4344 7.08292 36.8251 6.74139 37.6619H15.1941L14.698 37.1819H14.6993ZM17.5212 36.0454C16.0759 36.0454 15.5824 36.9873 15.5629 37.0275L15.2603 37.6619H19.1497C18.9069 36.9925 18.4069 36.0454 17.5212 36.0454ZM11.1086 33.19C10.7879 32.7606 10.6035 32.5388 10.2386 32.5388C9.87366 32.5388 9.68925 32.7619 9.3685 33.19C9.02436 33.648 8.55296 34.2759 7.62834 34.2759C6.70373 34.2759 6.23233 33.648 5.88949 33.19C5.85573 33.1459 5.82196 33.1005 5.7882 33.0577C5.60509 32.8203 5.65184 32.4791 5.88949 32.2962C6.12714 32.1132 6.46868 32.1586 6.65178 32.396C6.68814 32.4428 6.72321 32.4908 6.75827 32.5375C7.08033 32.9669 7.26473 33.19 7.62834 33.19C7.99196 33.19 8.17766 32.9669 8.49842 32.5388C8.84255 32.0808 9.31395 31.4529 10.2386 31.4529V30.9132H7.32966V27.308C5.96481 27.5039 4.87527 27.7841 4.11038 28.0241C4.03766 28.8466 4 29.6769 4 30.4994C4 33.3872 4.44802 36.1725 5.27654 38.7892L5.409 38.7477L5.48562 38.1367C5.48952 38.0991 6.01676 34.3485 10.6606 34.3485C11.1502 34.3485 11.6229 34.4186 12.0657 34.5314L12.1683 34.1448C11.6684 33.936 11.3554 33.5195 11.1073 33.19H11.1086ZM14.6993 37.1819C14.6812 37.165 12.8241 35.4344 10.6619 35.4344C8.0452 35.4344 7.08292 36.8251 6.74139 37.6619H15.1941L14.698 37.1819H14.6993ZM17.5212 36.0454C16.0759 36.0454 15.5824 36.9873 15.5629 37.0275L15.2603 37.6619H19.1497C18.9069 36.9925 18.4069 36.0454 17.5212 36.0454ZM14.6993 37.1819C14.6812 37.165 12.8241 35.4344 10.6619 35.4344C8.0452 35.4344 7.08292 36.8251 6.74139 37.6619H15.1941L14.698 37.1819H14.6993ZM17.5212 36.0454C16.0759 36.0454 15.5824 36.9873 15.5629 37.0275L15.2603 37.6619H19.1497C18.9069 36.9925 18.4069 36.0454 17.5212 36.0454ZM11.1086 33.19C10.7879 32.7606 10.6035 32.5388 10.2386 32.5388C9.87366 32.5388 9.68925 32.7619 9.3685 33.19C9.02436 33.648 8.55296 34.2759 7.62834 34.2759C6.70373 34.2759 6.23233 33.648 5.88949 33.19C5.85573 33.1459 5.82196 33.1005 5.7882 33.0577C5.60509 32.8203 5.65184 32.4791 5.88949 32.2962C6.12714 32.1132 6.46868 32.1586 6.65178 32.396C6.68814 32.4428 6.72321 32.4908 6.75827 32.5375C7.08033 32.9669 7.26473 33.19 7.62834 33.19C7.99196 33.19 8.17766 32.9669 8.49842 32.5388C8.84255 32.0808 9.31395 31.4529 10.2386 31.4529V30.9132H7.32966V27.308C5.96481 27.5039 4.87527 27.7841 4.11038 28.0241C4.03766 28.8466 4 29.6769 4 30.4994C4 33.3872 4.44802 36.1725 5.27654 38.7892L5.409 38.7477L5.48562 38.1367C5.48952 38.0991 6.01676 34.3485 10.6606 34.3485C11.1502 34.3485 11.6229 34.4186 12.0657 34.5314L12.1683 34.1448C11.6684 33.936 11.3554 33.5195 11.1073 33.19H11.1086ZM14.6993 37.1819C14.6812 37.165 12.8241 35.4344 10.6619 35.4344C8.0452 35.4344 7.08292 36.8251 6.74139 37.6619H15.1941L14.698 37.1819H14.6993ZM17.5212 36.0454C16.0759 36.0454 15.5824 36.9873 15.5629 37.0275L15.2603 37.6619H19.1497C18.9069 36.9925 18.4069 36.0454 17.5212 36.0454Z" fill="url(#paint9_linear_14_187)"/>
<path d="M14.237 29.8286H13.3228V27.151C13.6279 27.1756 13.9318 27.2055 14.2357 27.2405V29.8286H14.237Z" fill="url(#paint10_linear_14_187)"/>
<path d="M9.33085 29.8286H8.41663V27.1769C8.71791 27.1471 9.02178 27.1237 9.32956 27.1043V29.8286H9.33085Z" fill="url(#paint11_linear_14_187)"/>
<path d="M7.80884 26.1507C6.344 26.3233 5.13628 26.597 4.24023 26.8526C4.27919 26.5477 4.32464 26.2428 4.37659 25.9393C6.51022 25.3438 10.6294 24.6199 16.1343 25.6253C16.3057 25.6565 16.4784 25.6889 16.6524 25.7239C17.568 25.9055 18.4991 26.1313 19.4289 26.3985C19.3523 26.6217 19.2822 26.8474 19.2198 27.0757C17.7511 26.6904 16.2823 26.4011 14.8487 26.2195C14.1747 26.1326 13.4903 26.0677 12.8124 26.0249C11.8047 25.9626 10.8087 25.951 9.85157 25.9899C9.162 26.0171 8.47374 26.0716 7.80884 26.1507Z" fill="url(#paint12_linear_14_187)"/>
<path d="M15.2837 19.9119L17.046 21.7217C16.4473 22.9645 16.0655 23.9414 15.8694 24.4759C13.8942 24.1438 12.0943 24.027 10.4983 24.04C7.99327 24.0621 5.9908 24.4084 4.59998 24.7548C4.92983 23.1954 5.39733 21.6659 5.99599 20.187L10.4957 23.3122L13.8539 20.9264L15.2824 19.9119H15.2837Z" fill="url(#paint13_linear_14_187)"/>
<path d="M10.7282 18.4667L13.0358 20.1766L10.4893 21.9863L8.03876 20.283L10.7282 18.4667Z" fill="url(#paint14_linear_14_187)"/>
<path d="M18.7679 18.5485C18.3095 19.3035 17.9082 20.0235 17.5602 20.6929L15.411 18.4875L13.9669 19.5137L10.7567 17.1357L7.08161 19.6187L6.43359 19.1686C7.7452 16.2652 9.52171 13.6653 11.6553 11.4443L12.9644 12.752C12.9644 12.7611 12.9644 12.7702 12.9644 12.7793C12.9644 14.3555 14.2474 15.6386 15.8265 15.6386C15.8356 15.6386 15.8447 15.6386 15.8538 15.6386L18.7692 18.5511L18.7679 18.5485Z" fill="url(#paint15_linear_14_187)"/>
<path d="M16.9563 24.6783C17.3173 23.7299 18.1562 21.71 19.5652 19.345L22.1027 21.88C21.1599 22.9113 20.3847 24.0945 19.8224 25.3801C18.8627 25.1038 17.9017 24.8677 16.955 24.6783H16.9563Z" fill="url(#paint16_linear_14_187)"/>
<path d="M23.7806 30.5448C23.7806 26.8357 26.6025 23.7935 30.1425 23.7935C32.3709 23.7935 33.5332 24.7081 34.2267 26.0937V24.066H37.5434V36.925H34.3007V34.8233C33.6072 36.2828 32.4437 37.2467 30.1425 37.2467C26.6025 37.2467 23.7806 34.2538 23.7806 30.5448ZM30.6879 34.2305C32.8917 34.2305 34.302 32.5491 34.302 30.5461C34.302 28.543 32.8917 26.8124 30.6879 26.8124C28.4842 26.8124 27.1232 28.5184 27.1232 30.5214C27.1232 32.5245 28.5595 34.2305 30.6879 34.2305Z" fill="#151515"/>
<path d="M38.5342 24.066H41.8262V25.9458C42.495 24.5109 43.7819 23.7702 45.7623 23.7702C47.57 23.7702 49.1036 24.6355 49.9452 26.1936C50.8113 24.6355 52.0489 23.7702 54.302 23.7702C57.0746 23.7702 59.203 25.8225 59.203 29.0619V36.9263H55.8617V29.878C55.8617 27.6518 54.7968 26.6878 53.2878 26.6878C51.7788 26.6878 50.6646 27.4053 50.6646 29.878V36.9263H47.3232V29.878C47.3232 27.6518 46.209 26.6878 44.5507 26.6878C43.1391 26.6878 41.8768 27.6518 41.8768 29.878V36.9263H38.5355V24.0673L38.5342 24.066Z" fill="#151515"/>
<path d="M59.5745 30.5201C59.5745 26.8111 62.3717 23.7442 66.2338 23.7442C70.0959 23.7442 72.7684 26.8111 72.7684 30.5201C72.7684 30.8912 72.7438 31.2868 72.6697 31.7072H63.0405C63.4119 33.216 64.5508 34.2785 66.2338 34.2785C67.6701 34.2785 68.783 33.5364 69.3777 32.5478L71.9763 34.5016C70.9361 36.109 68.783 37.2467 66.2338 37.2467C62.2483 37.2467 59.5745 34.2292 59.5745 30.5201ZM69.4011 29.2098C69.0297 27.775 67.8168 26.6139 66.1831 26.6139C64.5495 26.6139 63.4106 27.6777 63.0392 29.2098H69.4011Z" fill="#151515"/>
<path d="M73.2372 24.066H76.5293V26.143C77.2227 24.7328 78.3863 23.7935 80.6381 23.7935C84.1781 23.7935 87 26.8357 87 30.5448C87 34.2538 84.1781 37.2467 80.6381 37.2467C78.4356 37.2467 77.2721 36.3568 76.5786 35.0205V41.8704H73.2372V24.066ZM80.094 34.2305C82.2224 34.2305 83.6587 32.4752 83.6587 30.5214C83.6587 28.5677 82.2224 26.8124 80.094 26.8124C77.9655 26.8124 76.4799 28.543 76.4799 30.5461C76.4799 32.5491 77.8915 34.2305 80.094 34.2305Z" fill="#151515"/>
<path d="M96 37.4966V23.4966" stroke="black" stroke-width="2.04" stroke-miterlimit="10"/>
<path d="M109.285 29.3129C108.836 29.3129 108.424 29.232 108.05 29.0729C107.674 28.9137 107.35 28.6841 107.073 28.3867C106.797 28.0893 106.582 27.737 106.434 27.3326C106.282 26.9282 106.209 26.4821 106.209 25.9968C106.209 25.5115 106.29 25.1071 106.454 24.7132C106.616 24.3166 106.844 23.9696 107.131 23.667C107.421 23.3669 107.755 23.1321 108.136 22.9677C108.518 22.8008 108.93 22.7199 109.372 22.7199C109.685 22.7199 109.991 22.7668 110.288 22.8634C110.586 22.9599 110.858 23.0904 111.101 23.2599C111.343 23.4295 111.542 23.62 111.696 23.8365L111.033 24.5279C110.855 24.3505 110.675 24.2018 110.495 24.0818C110.314 23.9618 110.129 23.8705 109.941 23.8105C109.753 23.7504 109.565 23.7191 109.374 23.7191C109.074 23.7191 108.792 23.7765 108.531 23.8887C108.27 24.0035 108.042 24.1601 107.849 24.3636C107.656 24.5671 107.504 24.8071 107.392 25.0863C107.282 25.3654 107.227 25.6707 107.227 26.002C107.227 26.3516 107.282 26.6699 107.389 26.9543C107.496 27.2387 107.648 27.484 107.846 27.6875C108.042 27.891 108.277 28.0449 108.552 28.1519C108.826 28.2588 109.129 28.3136 109.46 28.3136C109.664 28.3136 109.863 28.2849 110.058 28.2301C110.254 28.1754 110.44 28.0945 110.612 27.9901C110.785 27.8858 110.941 27.7631 111.082 27.6222L111.581 28.4336C111.44 28.598 111.247 28.7493 111.004 28.885C110.761 29.0207 110.489 29.125 110.192 29.2033C109.894 29.279 109.594 29.3181 109.293 29.3181L109.285 29.3129Z" fill="black"/>
<path d="M114.55 29.3129C114.151 29.3129 113.788 29.2033 113.459 28.9815C113.13 28.7598 112.866 28.4597 112.67 28.0788C112.474 27.6979 112.375 27.2674 112.375 26.79C112.375 26.3125 112.474 25.8742 112.675 25.4959C112.876 25.1176 113.145 24.8228 113.487 24.6062C113.83 24.3923 114.211 24.2827 114.637 24.2827C114.887 24.2827 115.12 24.3192 115.329 24.3923C115.538 24.4653 115.72 24.5697 115.877 24.7001C116.034 24.8332 116.162 24.9845 116.264 25.1567C116.366 25.3289 116.428 25.5115 116.452 25.7098L116.24 25.6368V24.3844H117.199V29.219H116.24V28.0684L116.462 28.0032C116.426 28.1701 116.35 28.3293 116.238 28.4858C116.123 28.6424 115.979 28.7833 115.804 28.9059C115.629 29.0285 115.436 29.1276 115.224 29.2007C115.013 29.2738 114.788 29.3103 114.556 29.3103L114.55 29.3129ZM114.799 28.4389C115.088 28.4389 115.342 28.3684 115.564 28.2275C115.786 28.0866 115.958 27.891 116.083 27.6431C116.209 27.3953 116.272 27.1109 116.272 26.79C116.272 26.469 116.209 26.1977 116.083 25.9525C115.958 25.7072 115.783 25.5141 115.564 25.3733C115.342 25.2324 115.088 25.1619 114.799 25.1619C114.509 25.1619 114.266 25.2324 114.046 25.3733C113.827 25.5141 113.657 25.7072 113.529 25.9525C113.401 26.1977 113.341 26.4769 113.341 26.79C113.341 27.103 113.404 27.3926 113.529 27.6431C113.655 27.891 113.827 28.0866 114.046 28.2275C114.266 28.3684 114.514 28.4389 114.799 28.4389ZM114.302 23.6409L113.989 23.1712L115.308 22.0207L115.906 22.7773L114.302 23.6435V23.6409Z" fill="black"/>
<path d="M118.507 29.2216V24.387H119.466V25.4176L119.291 25.5272C119.34 25.368 119.419 25.2141 119.526 25.068C119.633 24.9219 119.766 24.7914 119.923 24.6767C120.079 24.5645 120.249 24.4731 120.429 24.4053C120.61 24.3375 120.798 24.3036 120.988 24.3036C121.265 24.3036 121.508 24.3505 121.717 24.4418C121.926 24.5332 122.098 24.6714 122.234 24.8567C122.37 25.0419 122.466 25.2715 122.529 25.5481L122.383 25.5115L122.448 25.355C122.516 25.2141 122.61 25.081 122.73 24.9532C122.85 24.8254 122.986 24.7158 123.14 24.6166C123.294 24.5175 123.456 24.4418 123.629 24.387C123.801 24.3323 123.971 24.3036 124.135 24.3036C124.498 24.3036 124.799 24.3766 125.034 24.5253C125.269 24.6714 125.449 24.8958 125.569 25.1985C125.689 25.4985 125.749 25.8742 125.749 26.3229V29.2242H124.791V26.3777C124.791 26.1012 124.754 25.8768 124.684 25.6994C124.613 25.5246 124.506 25.3941 124.365 25.308C124.224 25.2219 124.041 25.1802 123.822 25.1802C123.649 25.1802 123.488 25.2089 123.339 25.2689C123.187 25.3263 123.057 25.4072 122.947 25.5115C122.837 25.6159 122.751 25.7385 122.688 25.8742C122.626 26.0125 122.597 26.1638 122.597 26.3308V29.2242H121.638V26.3595C121.638 26.109 121.602 25.8951 121.529 25.7203C121.456 25.5455 121.349 25.4124 121.205 25.3185C121.064 25.2272 120.892 25.1802 120.688 25.1802C120.515 25.1802 120.356 25.2089 120.207 25.2689C120.058 25.3263 119.93 25.4072 119.821 25.5089C119.711 25.6107 119.625 25.7307 119.562 25.869C119.5 26.0073 119.471 26.156 119.471 26.3151V29.2268H118.512L118.507 29.2216Z" fill="black"/>
<path d="M128.878 29.3129C128.478 29.3129 128.115 29.2033 127.786 28.9815C127.457 28.7598 127.193 28.4597 126.998 28.0788C126.802 27.6979 126.702 27.2674 126.702 26.79C126.702 26.3125 126.802 25.8742 127.003 25.4959C127.204 25.1176 127.473 24.8228 127.815 24.6062C128.157 24.3923 128.538 24.2827 128.964 24.2827C129.215 24.2827 129.447 24.3192 129.656 24.3923C129.865 24.4653 130.048 24.5697 130.205 24.7001C130.361 24.8332 130.489 24.9845 130.591 25.1567C130.693 25.3289 130.756 25.5115 130.779 25.7098L130.568 25.6368V24.3844H131.526V29.219H130.568V28.0684L130.79 28.0032C130.753 28.1701 130.677 28.3293 130.565 28.4858C130.45 28.6424 130.307 28.7833 130.132 28.9059C129.957 29.0285 129.763 29.1276 129.552 29.2007C129.34 29.2738 129.116 29.3103 128.883 29.3103L128.878 29.3129ZM129.126 28.4389C129.416 28.4389 129.669 28.3684 129.891 28.2275C130.113 28.0866 130.286 27.891 130.411 27.6431C130.536 27.3953 130.599 27.1109 130.599 26.79C130.599 26.469 130.536 26.1977 130.411 25.9525C130.286 25.7072 130.111 25.5141 129.891 25.3733C129.669 25.2324 129.416 25.1619 129.126 25.1619C128.836 25.1619 128.593 25.2324 128.374 25.3733C128.155 25.5141 127.985 25.7072 127.857 25.9525C127.731 26.1977 127.669 26.4769 127.669 26.79C127.669 27.103 127.731 27.3926 127.857 27.6431C127.982 27.891 128.155 28.0866 128.374 28.2275C128.593 28.3684 128.841 28.4389 129.126 28.4389Z" fill="black"/>
<path d="M132.85 29.2216V24.387H133.809V25.9081L133.717 25.5402C133.785 25.308 133.9 25.0941 134.062 24.9062C134.224 24.7158 134.412 24.5645 134.624 24.4549C134.835 24.3453 135.054 24.2879 135.282 24.2879C135.386 24.2879 135.485 24.2983 135.582 24.3166C135.679 24.3349 135.752 24.3557 135.809 24.3818L135.561 25.4124C135.488 25.3811 135.407 25.355 135.316 25.3341C135.227 25.3132 135.138 25.3028 135.052 25.3028C134.887 25.3028 134.728 25.3341 134.577 25.3993C134.425 25.4646 134.295 25.5533 134.18 25.6655C134.065 25.7777 133.976 25.9107 133.908 26.062C133.84 26.2134 133.806 26.3777 133.806 26.5551V29.2268H132.848L132.85 29.2216Z" fill="black"/>
<path d="M138.225 29.3129C137.825 29.3129 137.462 29.2033 137.133 28.9815C136.804 28.7598 136.54 28.4597 136.345 28.0788C136.149 27.6979 136.049 27.2674 136.049 26.79C136.049 26.3125 136.149 25.8742 136.35 25.4959C136.551 25.1176 136.82 24.8228 137.162 24.6062C137.504 24.3923 137.885 24.2827 138.311 24.2827C138.562 24.2827 138.794 24.3192 139.003 24.3923C139.212 24.4653 139.395 24.5697 139.552 24.7001C139.708 24.8332 139.836 24.9845 139.938 25.1567C140.04 25.3289 140.103 25.5115 140.126 25.7098L139.915 25.6368V24.3844H140.873V29.219H139.915V28.0684L140.137 28.0032C140.1 28.1701 140.024 28.3293 139.912 28.4858C139.797 28.6424 139.654 28.7833 139.479 28.9059C139.304 29.0285 139.11 29.1276 138.899 29.2007C138.687 29.2738 138.463 29.3103 138.23 29.3103L138.225 29.3129ZM138.476 28.4389C138.766 28.4389 139.019 28.3684 139.241 28.2275C139.463 28.0866 139.635 27.891 139.761 27.6431C139.886 27.3953 139.949 27.1109 139.949 26.79C139.949 26.469 139.886 26.1977 139.761 25.9525C139.635 25.7072 139.46 25.5141 139.241 25.3733C139.019 25.2324 138.766 25.1619 138.476 25.1619C138.186 25.1619 137.943 25.2324 137.724 25.3733C137.504 25.5141 137.334 25.7072 137.206 25.9525C137.081 26.1977 137.018 26.4769 137.018 26.79C137.018 27.103 137.081 27.3926 137.206 27.6431C137.332 27.891 137.504 28.0866 137.724 28.2275C137.943 28.3684 138.191 28.4389 138.476 28.4389Z" fill="black"/>
<path d="M145.021 29.2216V22.7747H149.087V23.7322H146.016V28.2641H149.087V29.2216H145.021ZM145.472 26.3934V25.4359H148.58V26.3934H145.472Z" fill="black"/>
<path d="M150.424 29.2216V24.387H151.382V25.4176L151.207 25.5272C151.257 25.368 151.335 25.2141 151.442 25.068C151.55 24.9219 151.683 24.7914 151.839 24.6767C151.996 24.5645 152.166 24.4731 152.346 24.4053C152.526 24.3375 152.714 24.3036 152.905 24.3036C153.182 24.3036 153.425 24.3505 153.634 24.4418C153.843 24.5332 154.015 24.6714 154.151 24.8567C154.287 25.0419 154.383 25.2715 154.446 25.5481L154.3 25.5115L154.365 25.355C154.433 25.2141 154.527 25.081 154.647 24.9532C154.767 24.8254 154.903 24.7158 155.057 24.6166C155.211 24.5175 155.373 24.4418 155.545 24.387C155.718 24.3323 155.887 24.3036 156.052 24.3036C156.415 24.3036 156.715 24.3766 156.95 24.5253C157.185 24.6714 157.366 24.8958 157.486 25.1985C157.606 25.4985 157.666 25.8742 157.666 26.3229V29.2242H156.708V26.3777C156.708 26.1012 156.671 25.8768 156.6 25.6994C156.53 25.5246 156.423 25.3941 156.282 25.308C156.141 25.2219 155.958 25.1802 155.739 25.1802C155.566 25.1802 155.404 25.2089 155.255 25.2689C155.104 25.3263 154.973 25.4072 154.864 25.5115C154.754 25.6159 154.668 25.7385 154.605 25.8742C154.542 26.0125 154.514 26.1638 154.514 26.3308V29.2242H153.555V26.3595C153.555 26.109 153.519 25.8951 153.446 25.7203C153.372 25.5455 153.265 25.4124 153.122 25.3185C152.981 25.2272 152.808 25.1802 152.605 25.1802C152.432 25.1802 152.273 25.2089 152.124 25.2689C151.975 25.3263 151.847 25.4072 151.738 25.5089C151.628 25.6107 151.542 25.7307 151.479 25.869C151.416 26.0073 151.388 26.156 151.388 26.3151V29.2268H150.429L150.424 29.2216Z" fill="black"/>
<path d="M158.933 31.2462V24.3845H159.891V25.4907L159.745 25.4072C159.781 25.2219 159.886 25.0471 160.058 24.8776C160.231 24.708 160.442 24.5697 160.69 24.4627C160.938 24.3558 161.197 24.301 161.461 24.301C161.897 24.301 162.283 24.4079 162.623 24.6219C162.96 24.8384 163.229 25.1306 163.425 25.5063C163.621 25.882 163.72 26.3099 163.72 26.7952C163.72 27.2805 163.623 27.7031 163.43 28.0788C163.237 28.4571 162.97 28.7546 162.633 28.9711C162.296 29.1903 161.915 29.2972 161.489 29.2972C161.207 29.2972 160.933 29.2399 160.669 29.1277C160.406 29.0155 160.181 28.8694 159.996 28.6893C159.81 28.5119 159.698 28.3267 159.653 28.1362L159.894 28.0084V31.241H158.935L158.933 31.2462ZM161.33 28.4284C161.612 28.4284 161.866 28.358 162.088 28.2171C162.31 28.0762 162.485 27.8832 162.612 27.6379C162.74 27.3927 162.806 27.1135 162.806 26.8004C162.806 26.4873 162.743 26.2082 162.618 25.9681C162.492 25.7255 162.317 25.535 162.098 25.3915C161.876 25.2506 161.623 25.1802 161.333 25.1802C161.043 25.1802 160.79 25.248 160.568 25.3889C160.346 25.5272 160.171 25.7177 160.043 25.9655C159.912 26.2108 159.849 26.4899 159.849 26.803C159.849 27.1161 159.915 27.3953 160.043 27.6405C160.171 27.8858 160.346 28.0788 160.568 28.2197C160.79 28.3606 161.043 28.4311 161.333 28.4311L161.33 28.4284Z" fill="black"/>
<path d="M164.749 29.2216V24.387H165.707V25.9081L165.616 25.5402C165.684 25.308 165.799 25.0941 165.961 24.9062C166.123 24.7158 166.311 24.5645 166.522 24.4549C166.734 24.3453 166.953 24.2879 167.18 24.2879C167.285 24.2879 167.384 24.2983 167.481 24.3166C167.577 24.3349 167.65 24.3557 167.708 24.3818L167.46 25.4124C167.387 25.3811 167.306 25.355 167.214 25.3341C167.125 25.3132 167.037 25.3028 166.95 25.3028C166.786 25.3028 166.627 25.3341 166.475 25.3993C166.324 25.4646 166.193 25.5533 166.078 25.6655C165.963 25.7777 165.874 25.9107 165.807 26.062C165.739 26.2134 165.705 26.3777 165.705 26.5551V29.2268H164.746L164.749 29.2216Z" fill="black"/>
<path d="M170.521 29.3129C170.022 29.3129 169.58 29.2059 169.196 28.9946C168.813 28.7833 168.51 28.4937 168.293 28.1232C168.073 27.7553 167.966 27.33 167.966 26.8526C167.966 26.4717 168.029 26.1247 168.152 25.8116C168.275 25.4985 168.444 25.2272 168.664 24.9976C168.883 24.768 169.144 24.5906 169.447 24.4627C169.75 24.3375 170.082 24.2749 170.437 24.2749C170.75 24.2749 171.043 24.3349 171.312 24.4549C171.581 24.5749 171.819 24.7393 172.017 24.948C172.218 25.1567 172.37 25.4046 172.479 25.689C172.586 25.9733 172.636 26.2864 172.631 26.623L172.62 27.0274H168.666L168.455 26.2708H171.8L171.662 26.4273V26.2056C171.644 26.002 171.576 25.822 171.458 25.6629C171.341 25.5037 171.194 25.3785 171.017 25.2846C170.839 25.1906 170.646 25.1463 170.437 25.1463C170.105 25.1463 169.826 25.2089 169.599 25.3341C169.371 25.4594 169.199 25.6446 169.082 25.8873C168.964 26.1299 168.907 26.4299 168.907 26.7848C168.907 27.1213 168.977 27.4161 169.118 27.664C169.259 27.9119 169.46 28.1049 169.719 28.2406C169.977 28.3763 170.275 28.4441 170.612 28.4441C170.852 28.4441 171.074 28.405 171.281 28.3241C171.487 28.2432 171.709 28.0997 171.949 27.891L172.43 28.5641C172.281 28.7128 172.103 28.8407 171.889 28.9502C171.675 29.0598 171.453 29.1485 171.215 29.2138C170.978 29.279 170.748 29.3103 170.521 29.3103V29.3129Z" fill="black"/>
<path d="M175.279 29.3129C174.874 29.3129 174.509 29.2425 174.182 29.1016C173.856 28.9607 173.587 28.752 173.37 28.4754L174.015 27.9223C174.2 28.1362 174.401 28.2928 174.618 28.3867C174.835 28.4806 175.083 28.5302 175.36 28.5302C175.47 28.5302 175.574 28.5171 175.668 28.4885C175.762 28.4598 175.846 28.4206 175.916 28.3632C175.987 28.3084 176.042 28.2432 176.078 28.1649C176.115 28.0893 176.133 28.0032 176.133 27.9119C176.133 27.7527 176.076 27.6223 175.958 27.5257C175.895 27.484 175.799 27.4344 175.668 27.3822C175.535 27.33 175.365 27.2753 175.156 27.2205C174.801 27.1291 174.509 27.0248 174.281 26.9074C174.054 26.79 173.879 26.6595 173.756 26.5108C173.665 26.3934 173.597 26.2656 173.553 26.1273C173.508 25.989 173.487 25.8377 173.487 25.6707C173.487 25.4672 173.532 25.282 173.621 25.1124C173.709 24.9428 173.832 24.7967 173.989 24.6714C174.146 24.5462 174.331 24.4497 174.542 24.3818C174.754 24.314 174.981 24.2801 175.222 24.2801C175.449 24.2801 175.673 24.3114 175.898 24.3714C176.123 24.434 176.329 24.5227 176.52 24.6375C176.71 24.7549 176.869 24.8932 177 25.0524L176.457 25.6524C176.339 25.535 176.214 25.4333 176.076 25.3446C175.937 25.2559 175.799 25.188 175.655 25.1385C175.514 25.0889 175.386 25.0654 175.269 25.0654C175.141 25.0654 175.023 25.0785 174.919 25.1019C174.814 25.1254 174.725 25.1619 174.655 25.2115C174.584 25.2611 174.529 25.3211 174.493 25.3968C174.456 25.4698 174.438 25.5533 174.438 25.6446C174.443 25.7255 174.464 25.8012 174.498 25.8716C174.532 25.942 174.579 26.002 174.642 26.0516C174.71 26.1012 174.811 26.1534 174.947 26.2082C175.083 26.2629 175.255 26.3151 175.464 26.3647C175.773 26.4456 176.026 26.5317 176.224 26.6282C176.423 26.7221 176.582 26.8317 176.7 26.9543C176.822 27.0717 176.909 27.2074 176.958 27.3587C177.008 27.5127 177.031 27.6849 177.031 27.8753C177.031 28.1519 176.953 28.3997 176.796 28.6163C176.64 28.8354 176.428 29.005 176.164 29.1277C175.901 29.2503 175.605 29.3129 175.279 29.3129Z" fill="black"/>
<path d="M179.943 29.3129C179.544 29.3129 179.181 29.2033 178.852 28.9815C178.523 28.7598 178.259 28.4597 178.063 28.0788C177.867 27.6979 177.768 27.2674 177.768 26.79C177.768 26.3125 177.867 25.8742 178.068 25.4959C178.269 25.1176 178.538 24.8228 178.88 24.6062C179.223 24.3923 179.604 24.2827 180.03 24.2827C180.28 24.2827 180.513 24.3192 180.722 24.3923C180.931 24.4653 181.113 24.5697 181.27 24.7001C181.427 24.8332 181.555 24.9845 181.657 25.1567C181.758 25.3289 181.821 25.5115 181.845 25.7098L181.633 25.6368V24.3844H182.592V29.219H181.633V28.0684L181.855 28.0032C181.818 28.1701 181.743 28.3293 181.63 28.4858C181.516 28.6424 181.372 28.7833 181.197 28.9059C181.022 29.0285 180.829 29.1276 180.617 29.2007C180.406 29.2738 180.181 29.3103 179.949 29.3103L179.943 29.3129ZM180.191 28.4389C180.481 28.4389 180.735 28.3684 180.957 28.2275C181.179 28.0866 181.351 27.891 181.476 27.6431C181.602 27.3953 181.664 27.1109 181.664 26.79C181.664 26.469 181.602 26.1977 181.476 25.9525C181.351 25.7072 181.176 25.5141 180.957 25.3733C180.735 25.2324 180.481 25.1619 180.191 25.1619C179.902 25.1619 179.659 25.2324 179.439 25.3733C179.22 25.5141 179.05 25.7072 178.922 25.9525C178.797 26.1977 178.734 26.4769 178.734 26.79C178.734 27.103 178.797 27.3926 178.922 27.6431C179.048 27.891 179.22 28.0866 179.439 28.2275C179.659 28.3684 179.907 28.4389 180.191 28.4389Z" fill="black"/>
<path d="M183.918 29.2216V24.387H184.877V25.9081L184.785 25.5402C184.853 25.308 184.968 25.0941 185.13 24.9062C185.292 24.7158 185.48 24.5645 185.692 24.4549C185.903 24.3453 186.123 24.2879 186.35 24.2879C186.454 24.2879 186.553 24.2983 186.65 24.3166C186.747 24.3349 186.82 24.3557 186.877 24.3818L186.629 25.4124C186.556 25.3811 186.475 25.355 186.384 25.3341C186.295 25.3132 186.206 25.3028 186.12 25.3028C185.955 25.3028 185.796 25.3341 185.645 25.3993C185.493 25.4646 185.363 25.5533 185.248 25.6655C185.133 25.7777 185.044 25.9107 184.976 26.062C184.908 26.2134 184.874 26.3777 184.874 26.5551V29.2268H183.916L183.918 29.2216Z" fill="black"/>
<path d="M188.248 23.3174C188.045 23.3174 187.888 23.2652 187.778 23.1608C187.669 23.0564 187.614 22.9077 187.614 22.7199C187.614 22.5425 187.671 22.3964 187.783 22.2868C187.898 22.1772 188.052 22.1198 188.248 22.1198C188.444 22.1198 188.609 22.172 188.718 22.2764C188.828 22.3807 188.886 22.5268 188.886 22.7173C188.886 22.8947 188.828 23.0382 188.716 23.1504C188.604 23.2626 188.447 23.3174 188.251 23.3174H188.248ZM187.789 29.2216V24.3871H188.739V29.2216H187.789Z" fill="black"/>
<path d="M192.056 29.3129C191.657 29.3129 191.294 29.2033 190.964 28.9815C190.635 28.7598 190.372 28.4597 190.176 28.0788C189.98 27.6979 189.881 27.2674 189.881 26.79C189.881 26.3125 189.98 25.8742 190.181 25.4959C190.382 25.1176 190.651 24.8228 190.993 24.6062C191.335 24.3923 191.717 24.2827 192.142 24.2827C192.393 24.2827 192.625 24.3192 192.834 24.3923C193.043 24.4653 193.226 24.5697 193.383 24.7001C193.54 24.8332 193.668 24.9845 193.769 25.1567C193.871 25.3289 193.934 25.5115 193.957 25.7098L193.746 25.6368V24.3844H194.704V29.219H193.746V28.0684L193.968 28.0032C193.931 28.1701 193.856 28.3293 193.743 28.4858C193.628 28.6424 193.485 28.7833 193.31 28.9059C193.135 29.0285 192.941 29.1276 192.73 29.2007C192.518 29.2738 192.294 29.3103 192.061 29.3103L192.056 29.3129ZM192.307 28.4389C192.597 28.4389 192.85 28.3684 193.072 28.2275C193.294 28.0866 193.466 27.891 193.592 27.6431C193.717 27.3953 193.78 27.1109 193.78 26.79C193.78 26.469 193.717 26.1977 193.592 25.9525C193.466 25.7072 193.291 25.5141 193.072 25.3733C192.85 25.2324 192.597 25.1619 192.307 25.1619C192.017 25.1619 191.774 25.2324 191.555 25.3733C191.335 25.5141 191.166 25.7072 191.038 25.9525C190.912 26.1977 190.85 26.4769 190.85 26.79C190.85 27.103 190.912 27.3926 191.038 27.6431C191.163 27.891 191.335 28.0866 191.555 28.2275C191.774 28.3684 192.022 28.4389 192.307 28.4389Z" fill="black"/>
<path d="M196.049 29.2216V22.4068H197V29.2216H196.049Z" fill="black"/>
<path d="M108.447 38.9715C108.006 38.9715 107.609 38.8619 107.261 38.6454C106.914 38.4288 106.64 38.1288 106.436 37.7531C106.232 37.3748 106.131 36.9443 106.131 36.459C106.131 35.9737 106.23 35.5432 106.431 35.1649C106.632 34.7866 106.904 34.4892 107.246 34.2727C107.59 34.0535 107.98 33.9465 108.416 33.9465C108.656 33.9465 108.888 33.9857 109.113 34.0613C109.338 34.137 109.539 34.2413 109.716 34.3744C109.894 34.5075 110.035 34.651 110.137 34.8075C110.239 34.964 110.288 35.1232 110.288 35.2823L110.011 35.3006V32.068H110.962V38.8828H110.011V37.7322H110.197C110.197 37.8783 110.147 38.0244 110.051 38.1705C109.951 38.314 109.821 38.4471 109.659 38.5723C109.497 38.695 109.309 38.7941 109.097 38.8671C108.886 38.9402 108.669 38.9767 108.447 38.9767V38.9715ZM108.578 38.1523C108.868 38.1523 109.121 38.0792 109.343 37.9305C109.565 37.7818 109.737 37.5809 109.863 37.3278C109.988 37.0721 110.051 36.7825 110.051 36.4564C110.051 36.1303 109.988 35.8407 109.863 35.585C109.737 35.3293 109.562 35.1284 109.343 34.9823C109.121 34.8336 108.868 34.7605 108.578 34.7605C108.288 34.7605 108.034 34.8336 107.812 34.9823C107.59 35.1284 107.418 35.3293 107.293 35.585C107.167 35.8407 107.105 36.1303 107.105 36.4564C107.105 36.7825 107.167 37.0721 107.293 37.3278C107.418 37.5835 107.593 37.7844 107.812 37.9305C108.034 38.0766 108.288 38.1523 108.578 38.1523Z" fill="black"/>
<path d="M114.532 38.9715C114.033 38.9715 113.592 38.8645 113.208 38.6532C112.824 38.4419 112.521 38.1523 112.304 37.7818C112.085 37.4139 111.978 36.9886 111.978 36.5112C111.978 36.1303 112.041 35.7833 112.163 35.4702C112.286 35.1571 112.456 34.8858 112.675 34.6562C112.895 34.4266 113.156 34.2492 113.459 34.1213C113.762 33.9961 114.093 33.9335 114.449 33.9335C114.762 33.9335 115.055 33.9935 115.324 34.1135C115.593 34.2335 115.83 34.3979 116.029 34.6066C116.23 34.8153 116.381 35.0632 116.491 35.3476C116.598 35.6319 116.648 35.945 116.642 36.2816L116.632 36.686H112.678L112.466 35.9294H115.812L115.674 36.0859V35.8641C115.655 35.6606 115.587 35.4806 115.47 35.3215C115.352 35.1623 115.206 35.0371 115.028 34.9432C114.851 34.8492 114.658 34.8049 114.449 34.8049C114.117 34.8049 113.838 34.8675 113.61 34.9927C113.383 35.118 113.211 35.3032 113.093 35.5458C112.976 35.7885 112.918 36.0885 112.918 36.4434C112.918 36.7799 112.989 37.0747 113.13 37.3226C113.271 37.5705 113.472 37.7635 113.73 37.8992C113.989 38.0349 114.287 38.1027 114.624 38.1027C114.864 38.1027 115.086 38.0636 115.292 37.9827C115.499 37.9018 115.721 37.7583 115.961 37.5496L116.441 38.2227C116.292 38.3714 116.115 38.4993 115.901 38.6088C115.687 38.7184 115.465 38.8071 115.227 38.8724C114.989 38.9376 114.759 38.9689 114.532 38.9689V38.9715Z" fill="black"/>
<path d="M120.497 38.8802V32.4333H123.125C123.474 32.4333 123.793 32.522 124.078 32.6968C124.362 32.8716 124.592 33.109 124.765 33.4117C124.937 33.7117 125.023 34.0457 125.023 34.4161C125.023 34.7866 124.937 35.118 124.765 35.4206C124.592 35.7207 124.362 35.9633 124.078 36.1433C123.793 36.3233 123.474 36.4147 123.125 36.4147H121.492V38.8828H120.497V38.8802ZM121.492 35.4545H123.106C123.271 35.4545 123.422 35.4076 123.558 35.311C123.694 35.2145 123.804 35.0893 123.884 34.9327C123.968 34.7762 124.01 34.6014 124.01 34.4135C124.01 34.2257 123.968 34.0509 123.884 33.897C123.801 33.743 123.691 33.6204 123.558 33.5291C123.425 33.4378 123.273 33.3908 123.106 33.3908H121.492V35.4545Z" fill="black"/>
<path d="M127.752 38.9715C127.408 38.9715 127.107 38.8906 126.854 38.7315C126.598 38.5723 126.402 38.3479 126.264 38.0583C126.125 37.7687 126.057 37.427 126.057 37.0278V34.043H127.008V36.7695C127.008 37.0512 127.052 37.2965 127.141 37.5026C127.23 37.7087 127.361 37.8653 127.528 37.9775C127.697 38.087 127.901 38.1418 128.141 38.1418C128.319 38.1418 128.484 38.1131 128.63 38.0531C128.776 37.9957 128.904 37.9148 129.011 37.8105C129.118 37.7061 129.204 37.5809 129.264 37.4322C129.324 37.2861 129.356 37.1243 129.356 36.9521V34.0404H130.306V38.875H129.356V37.8627L129.52 37.7531C129.447 37.9801 129.322 38.1862 129.147 38.3714C128.972 38.5567 128.763 38.7002 128.525 38.8097C128.285 38.9167 128.027 38.9715 127.75 38.9715H127.752Z" fill="black"/>
<path d="M133.892 38.9715C133.393 38.9715 132.952 38.8645 132.568 38.6532C132.184 38.4419 131.881 38.1523 131.665 37.7818C131.445 37.4139 131.338 36.9886 131.338 36.5112C131.338 36.1303 131.401 35.7833 131.524 35.4702C131.646 35.1571 131.816 34.8858 132.035 34.6562C132.255 34.4266 132.516 34.2492 132.819 34.1213C133.122 33.9961 133.454 33.9335 133.809 33.9335C134.122 33.9335 134.415 33.9935 134.684 34.1135C134.953 34.2335 135.19 34.3979 135.389 34.6066C135.59 34.8153 135.741 35.0632 135.851 35.3476C135.958 35.6319 136.008 35.945 136.003 36.2816L135.992 36.686H132.038L131.827 35.9294H135.172L135.034 36.0859V35.8641C135.015 35.6606 134.947 35.4806 134.83 35.3215C134.712 35.1623 134.566 35.0371 134.389 34.9432C134.211 34.8492 134.018 34.8049 133.809 34.8049C133.477 34.8049 133.198 34.8675 132.97 34.9927C132.743 35.118 132.571 35.3032 132.453 35.5458C132.336 35.7885 132.278 36.0885 132.278 36.4434C132.278 36.7799 132.349 37.0747 132.49 37.3226C132.631 37.5705 132.832 37.7635 133.091 37.8992C133.349 38.0349 133.647 38.1027 133.984 38.1027C134.224 38.1027 134.446 38.0636 134.652 37.9827C134.859 37.9018 135.081 37.7583 135.321 37.5496L135.801 38.2227C135.653 38.3714 135.475 38.4993 135.261 38.6088C135.047 38.7184 134.825 38.8071 134.587 38.8724C134.349 38.9376 134.12 38.9689 133.892 38.9689V38.9715Z" fill="black"/>
<path d="M137.037 38.8802V34.0457H137.995V35.5667L137.904 35.1989C137.972 34.9667 138.087 34.7527 138.249 34.5649C138.41 34.3744 138.598 34.2231 138.81 34.1135C139.022 34.0039 139.241 33.9465 139.468 33.9465C139.573 33.9465 139.672 33.957 139.768 33.9752C139.865 33.9935 139.938 34.0144 139.996 34.0405L139.748 35.071C139.674 35.0397 139.594 35.0136 139.502 34.9928C139.413 34.9719 139.325 34.9614 139.238 34.9614C139.074 34.9614 138.914 34.9928 138.763 35.058C138.612 35.1232 138.481 35.2119 138.366 35.3241C138.251 35.4363 138.162 35.5693 138.094 35.7207C138.027 35.872 137.993 36.0364 137.993 36.2138V38.8854H137.034L137.037 38.8802Z" fill="black"/>
<path d="M140.531 34.9667V34.0457H143.61V34.9667H140.531ZM141.537 38.8802V32.8116H142.487V38.8802H141.537Z" fill="black"/>
<path d="M146.606 38.9715C146.133 38.9715 145.71 38.8619 145.339 38.6454C144.968 38.4288 144.673 38.1288 144.459 37.7531C144.245 37.3748 144.135 36.9443 144.135 36.459C144.135 35.9737 144.242 35.5433 144.459 35.1649C144.673 34.7866 144.968 34.4892 145.339 34.2727C145.71 34.0561 146.133 33.9465 146.606 33.9465C147.078 33.9465 147.491 34.0561 147.865 34.2727C148.235 34.4918 148.531 34.7892 148.745 35.1649C148.959 35.5433 149.069 35.9737 149.069 36.459C149.069 36.9443 148.961 37.3748 148.745 37.7531C148.531 38.1314 148.235 38.4288 147.865 38.6454C147.494 38.8645 147.073 38.9715 146.606 38.9715ZM146.606 38.1053C146.896 38.1053 147.152 38.0323 147.381 37.8888C147.611 37.7453 147.786 37.547 147.917 37.2991C148.045 37.0513 148.107 36.7695 148.102 36.4564C148.107 36.1381 148.047 35.8537 147.917 35.6033C147.786 35.3554 147.609 35.1597 147.381 35.0188C147.154 34.878 146.896 34.8075 146.606 34.8075C146.316 34.8075 146.057 34.8806 145.827 35.0241C145.598 35.1676 145.417 35.3658 145.287 35.6137C145.159 35.8616 145.096 36.1433 145.101 36.4564C145.096 36.7695 145.156 37.0513 145.287 37.2991C145.417 37.547 145.595 37.7453 145.827 37.8888C146.06 38.0323 146.318 38.1053 146.606 38.1053Z" fill="black"/>
<path d="M155.807 38.9715C155.339 38.9715 154.903 38.888 154.498 38.7184C154.093 38.5489 153.736 38.314 153.427 38.014C153.119 37.714 152.882 37.3617 152.714 36.96C152.545 36.5582 152.461 36.1225 152.461 35.6554C152.461 35.1884 152.545 34.7658 152.714 34.3666C152.884 33.9674 153.119 33.6178 153.425 33.3204C153.73 33.0229 154.083 32.7907 154.49 32.6264C154.895 32.4594 155.331 32.3785 155.799 32.3785C156.125 32.3785 156.441 32.4255 156.752 32.5168C157.063 32.6081 157.345 32.7386 157.596 32.9029C157.846 33.0699 158.053 33.2604 158.214 33.4743L157.569 34.1474C157.384 33.97 157.196 33.8213 157.003 33.7065C156.809 33.5891 156.611 33.5004 156.407 33.4404C156.204 33.3804 156.002 33.3491 155.799 33.3491C155.467 33.3491 155.161 33.4065 154.882 33.5239C154.603 33.6413 154.357 33.803 154.146 34.0118C153.934 34.2205 153.769 34.4657 153.652 34.7449C153.534 35.0241 153.477 35.3293 153.477 35.6607C153.477 35.992 153.537 36.2816 153.662 36.5686C153.785 36.853 153.955 37.1035 154.174 37.32C154.394 37.5366 154.644 37.7035 154.932 37.8262C155.216 37.9488 155.519 38.0114 155.841 38.0114C156.081 38.0114 156.308 37.9775 156.522 37.9044C156.736 37.834 156.927 37.7348 157.094 37.6044C157.259 37.4765 157.389 37.3278 157.481 37.1582C157.572 36.9887 157.619 36.8112 157.619 36.6208V36.4355L157.757 36.566H155.783V35.5798H158.64C158.653 35.6476 158.661 35.7128 158.669 35.7781C158.674 35.8433 158.679 35.9033 158.682 35.9633C158.685 36.0207 158.687 36.0781 158.687 36.1329C158.687 36.5556 158.614 36.9417 158.465 37.2887C158.319 37.6357 158.113 37.9357 157.851 38.1862C157.59 38.4367 157.285 38.6323 156.94 38.7706C156.593 38.9089 156.217 38.9793 155.809 38.9793L155.807 38.9715Z" fill="black"/>
<path d="M161.604 38.9715C161.205 38.9715 160.842 38.8619 160.513 38.6401C160.184 38.4184 159.92 38.1183 159.724 37.7374C159.528 37.3565 159.429 36.926 159.429 36.4486C159.429 35.9711 159.528 35.5328 159.729 35.1545C159.93 34.7762 160.199 34.4814 160.542 34.2648C160.884 34.0509 161.265 33.9413 161.691 33.9413C161.941 33.9413 162.174 33.9778 162.383 34.0509C162.592 34.1239 162.774 34.2283 162.931 34.3587C163.088 34.4918 163.216 34.6431 163.318 34.8153C163.42 34.9875 163.482 35.1701 163.506 35.3684L163.294 35.2954V34.043H164.253V38.8776H163.294V37.727L163.516 37.6618C163.48 37.8287 163.404 37.9879 163.292 38.1444C163.177 38.301 163.033 38.4419 162.858 38.5645C162.683 38.6871 162.49 38.7862 162.278 38.8593C162.067 38.9324 161.842 38.9689 161.61 38.9689L161.604 38.9715ZM161.855 38.0975C162.145 38.0975 162.398 38.027 162.62 37.8861C162.842 37.7452 163.015 37.5496 163.14 37.3017C163.265 37.0539 163.328 36.7695 163.328 36.4486C163.328 36.1276 163.265 35.8563 163.14 35.6111C163.015 35.3658 162.84 35.1727 162.62 35.0319C162.398 34.891 162.145 34.8205 161.855 34.8205C161.565 34.8205 161.322 34.891 161.103 35.0319C160.884 35.1727 160.714 35.3658 160.586 35.6111C160.458 35.8563 160.398 36.1355 160.398 36.4486C160.398 36.7616 160.461 37.0512 160.586 37.3017C160.711 37.5496 160.884 37.7452 161.103 37.8861C161.322 38.027 161.57 38.0975 161.855 38.0975Z" fill="black"/>
<path d="M166.198 32.976C165.995 32.976 165.838 32.9238 165.728 32.8194C165.619 32.7151 165.564 32.5663 165.564 32.3785C165.564 32.2011 165.621 32.055 165.733 31.9454C165.848 31.8358 166.002 31.7784 166.198 31.7784C166.394 31.7784 166.559 31.8306 166.668 31.935C166.778 32.0393 166.836 32.1854 166.836 32.3759C166.836 32.5533 166.778 32.6968 166.666 32.809C166.554 32.9212 166.397 32.976 166.201 32.976H166.198ZM165.736 38.8802V34.0457H166.687V38.8802H165.736Z" fill="black"/>
<path d="M167.737 34.9667V34.0457H170.816V34.9667H167.737ZM168.742 38.8802V32.8116H169.693V38.8802H168.742Z" fill="black"/>
<path d="M173.498 38.9715C173.098 38.9715 172.735 38.8619 172.406 38.6402C172.077 38.4184 171.813 38.1184 171.618 37.7374C171.422 37.3565 171.322 36.926 171.322 36.4486C171.322 35.9711 171.422 35.5328 171.623 35.1545C171.824 34.7762 172.093 34.4814 172.435 34.2648C172.777 34.0509 173.158 33.9413 173.584 33.9413C173.835 33.9413 174.067 33.9778 174.276 34.0509C174.485 34.1239 174.668 34.2283 174.825 34.3588C174.981 34.4918 175.109 34.6431 175.211 34.8153C175.313 34.9875 175.376 35.1702 175.399 35.3685L175.188 35.2954V34.0431H176.146V38.8776H175.188V37.727L175.41 37.6618C175.373 37.8288 175.297 37.9879 175.185 38.1445C175.07 38.301 174.926 38.4419 174.751 38.5645C174.576 38.6871 174.383 38.7863 174.172 38.8593C173.96 38.9324 173.736 38.9689 173.503 38.9689L173.498 38.9715ZM173.749 38.0975C174.039 38.0975 174.292 38.027 174.514 37.8862C174.736 37.7453 174.908 37.5496 175.034 37.3017C175.159 37.0539 175.222 36.7695 175.222 36.4486C175.222 36.1277 175.159 35.8563 175.034 35.6111C174.908 35.3658 174.733 35.1728 174.514 35.0319C174.292 34.891 174.039 34.8206 173.749 34.8206C173.459 34.8206 173.216 34.891 172.996 35.0319C172.777 35.1728 172.607 35.3658 172.479 35.6111C172.354 35.8563 172.291 36.1355 172.291 36.4486C172.291 36.7617 172.354 37.0513 172.479 37.3017C172.605 37.5496 172.777 37.7453 172.996 37.8862C173.216 38.027 173.464 38.0975 173.749 38.0975ZM173.25 33.2995L172.936 32.8299L174.255 31.6793L174.853 32.4359L173.25 33.3021V33.2995Z" fill="black"/>
<path d="M177.473 38.8802V34.0457H178.423V35.0397L178.259 35.1493C178.319 34.9353 178.439 34.7371 178.619 34.5544C178.797 34.3744 179.008 34.2257 179.257 34.1135C179.502 34.0013 179.755 33.9439 180.011 33.9439C180.38 33.9439 180.688 34.017 180.933 34.1605C181.179 34.304 181.364 34.5231 181.487 34.8179C181.61 35.1128 181.672 35.4832 181.672 35.932V38.8802H180.722V35.9972C180.722 35.7207 180.685 35.4911 180.612 35.311C180.539 35.131 180.424 34.998 180.27 34.9145C180.116 34.831 179.925 34.7971 179.698 34.8075C179.512 34.8075 179.345 34.8362 179.191 34.8962C179.037 34.9536 178.904 35.0371 178.789 35.1415C178.674 35.2458 178.585 35.3658 178.523 35.5041C178.457 35.6424 178.426 35.7911 178.426 35.9503V38.8802H177.475H177.473Z" fill="black"/>
<defs>
<linearGradient id="paint0_linear_14_187" x1="11.6566" y1="12.4212" x2="50.1815" y2="12.4212" gradientUnits="userSpaceOnUse">
<stop offset="0.16" stop-color="#FBDC1D"/>
<stop offset="0.26" stop-color="#FAD71C"/>
<stop offset="0.38" stop-color="#F7C81C"/>
<stop offset="0.51" stop-color="#F3B01C"/>
<stop offset="0.64" stop-color="#ED8F1C"/>
<stop offset="0.78" stop-color="#E6641B"/>
<stop offset="0.93" stop-color="#DD301B"/>
<stop offset="1" stop-color="#D9141B"/>
</linearGradient>
<linearGradient id="paint1_linear_14_187" x1="11.6566" y1="12.4212" x2="50.1815" y2="12.4212" gradientUnits="userSpaceOnUse">
<stop offset="0.16" stop-color="#FBDC1D"/>
<stop offset="0.26" stop-color="#FAD71C"/>
<stop offset="0.38" stop-color="#F7C81C"/>
<stop offset="0.51" stop-color="#F3B01C"/>
<stop offset="0.64" stop-color="#ED8F1C"/>
<stop offset="0.78" stop-color="#E6641B"/>
<stop offset="0.93" stop-color="#DD301B"/>
<stop offset="1" stop-color="#D9141B"/>
</linearGradient>
<linearGradient id="paint2_linear_14_187" x1="11.6567" y1="12.4212" x2="50.1815" y2="12.4212" gradientUnits="userSpaceOnUse">
<stop offset="0.16" stop-color="#FBDC1D"/>
<stop offset="0.26" stop-color="#FAD71C"/>
<stop offset="0.38" stop-color="#F7C81C"/>
<stop offset="0.51" stop-color="#F3B01C"/>
<stop offset="0.64" stop-color="#ED8F1C"/>
<stop offset="0.78" stop-color="#E6641B"/>
<stop offset="0.93" stop-color="#DD301B"/>
<stop offset="1" stop-color="#D9141B"/>
</linearGradient>
<linearGradient id="paint3_linear_14_187" x1="11.6566" y1="12.4212" x2="50.1815" y2="12.4212" gradientUnits="userSpaceOnUse">
<stop offset="0.16" stop-color="#FBDC1D"/>
<stop offset="0.26" stop-color="#FAD71C"/>
<stop offset="0.38" stop-color="#F7C81C"/>
<stop offset="0.51" stop-color="#F3B01C"/>
<stop offset="0.64" stop-color="#ED8F1C"/>
<stop offset="0.78" stop-color="#E6641B"/>
<stop offset="0.93" stop-color="#DD301B"/>
<stop offset="1" stop-color="#D9141B"/>
</linearGradient>
<linearGradient id="paint4_linear_14_187" x1="11.6567" y1="12.4212" x2="50.1815" y2="12.4212" gradientUnits="userSpaceOnUse">
<stop offset="0.16" stop-color="#FBDC1D"/>
<stop offset="0.26" stop-color="#FAD71C"/>
<stop offset="0.38" stop-color="#F7C81C"/>
<stop offset="0.51" stop-color="#F3B01C"/>
<stop offset="0.64" stop-color="#ED8F1C"/>
<stop offset="0.78" stop-color="#E6641B"/>
<stop offset="0.93" stop-color="#DD301B"/>
<stop offset="1" stop-color="#D9141B"/>
</linearGradient>
<linearGradient id="paint5_linear_14_187" x1="11.6567" y1="12.4212" x2="50.1816" y2="12.4212" gradientUnits="userSpaceOnUse">
<stop offset="0.16" stop-color="#FBDC1D"/>
<stop offset="0.26" stop-color="#FAD71C"/>
<stop offset="0.38" stop-color="#F7C81C"/>
<stop offset="0.51" stop-color="#F3B01C"/>
<stop offset="0.64" stop-color="#ED8F1C"/>
<stop offset="0.78" stop-color="#E6641B"/>
<stop offset="0.93" stop-color="#DD301B"/>
<stop offset="1" stop-color="#D9141B"/>
</linearGradient>
<linearGradient id="paint6_linear_14_187" x1="11.6567" y1="12.4212" x2="50.1815" y2="12.4212" gradientUnits="userSpaceOnUse">
<stop offset="0.16" stop-color="#FBDC1D"/>
<stop offset="0.26" stop-color="#FAD71C"/>
<stop offset="0.38" stop-color="#F7C81C"/>
<stop offset="0.51" stop-color="#F3B01C"/>
<stop offset="0.64" stop-color="#ED8F1C"/>
<stop offset="0.78" stop-color="#E6641B"/>
<stop offset="0.93" stop-color="#DD301B"/>
<stop offset="1" stop-color="#D9141B"/>
</linearGradient>
<linearGradient id="paint7_linear_14_187" x1="11.6567" y1="12.4212" x2="50.1816" y2="12.4212" gradientUnits="userSpaceOnUse">
<stop offset="0.16" stop-color="#FBDC1D"/>
<stop offset="0.26" stop-color="#FAD71C"/>
<stop offset="0.38" stop-color="#F7C81C"/>
<stop offset="0.51" stop-color="#F3B01C"/>
<stop offset="0.64" stop-color="#ED8F1C"/>
<stop offset="0.78" stop-color="#E6641B"/>
<stop offset="0.93" stop-color="#DD301B"/>
<stop offset="1" stop-color="#D9141B"/>
</linearGradient>
<linearGradient id="paint8_linear_14_187" x1="11.6567" y1="12.4212" x2="50.1815" y2="12.4212" gradientUnits="userSpaceOnUse">
<stop offset="0.16" stop-color="#FBDC1D"/>
<stop offset="0.26" stop-color="#FAD71C"/>
<stop offset="0.38" stop-color="#F7C81C"/>
<stop offset="0.51" stop-color="#F3B01C"/>
<stop offset="0.64" stop-color="#ED8F1C"/>
<stop offset="0.78" stop-color="#E6641B"/>
<stop offset="0.93" stop-color="#DD301B"/>
<stop offset="1" stop-color="#D9141B"/>
</linearGradient>
<linearGradient id="paint9_linear_14_187" x1="2.43776" y1="25.8083" x2="49.2231" y2="52.8474" gradientUnits="userSpaceOnUse">
<stop offset="0.14" stop-color="#FBDC1D"/>
<stop offset="0.21" stop-color="#F6DB1D"/>
<stop offset="0.29" stop-color="#E7D81F"/>
<stop offset="0.38" stop-color="#CFD522"/>
<stop offset="0.47" stop-color="#AED026"/>
<stop offset="0.57" stop-color="#83C92B"/>
<stop offset="0.67" stop-color="#4EC132"/>
<stop offset="0.77" stop-color="#11B739"/>
<stop offset="0.79" stop-color="#00B53C"/>
</linearGradient>
<linearGradient id="paint10_linear_14_187" x1="2.43772" y1="25.8082" x2="49.223" y2="52.8474" gradientUnits="userSpaceOnUse">
<stop offset="0.14" stop-color="#FBDC1D"/>
<stop offset="0.21" stop-color="#F6DB1D"/>
<stop offset="0.29" stop-color="#E7D81F"/>
<stop offset="0.38" stop-color="#CFD522"/>
<stop offset="0.47" stop-color="#AED026"/>
<stop offset="0.57" stop-color="#83C92B"/>
<stop offset="0.67" stop-color="#4EC132"/>
<stop offset="0.77" stop-color="#11B739"/>
<stop offset="0.79" stop-color="#00B53C"/>
</linearGradient>
<linearGradient id="paint11_linear_14_187" x1="2.43778" y1="25.8083" x2="49.2231" y2="52.8474" gradientUnits="userSpaceOnUse">
<stop offset="0.14" stop-color="#FBDC1D"/>
<stop offset="0.21" stop-color="#F6DB1D"/>
<stop offset="0.29" stop-color="#E7D81F"/>
<stop offset="0.38" stop-color="#CFD522"/>
<stop offset="0.47" stop-color="#AED026"/>
<stop offset="0.57" stop-color="#83C92B"/>
<stop offset="0.67" stop-color="#4EC132"/>
<stop offset="0.77" stop-color="#11B739"/>
<stop offset="0.79" stop-color="#00B53C"/>
</linearGradient>
<linearGradient id="paint12_linear_14_187" x1="2.43775" y1="25.8082" x2="49.2231" y2="52.8474" gradientUnits="userSpaceOnUse">
<stop offset="0.14" stop-color="#FBDC1D"/>
<stop offset="0.21" stop-color="#F6DB1D"/>
<stop offset="0.29" stop-color="#E7D81F"/>
<stop offset="0.38" stop-color="#CFD522"/>
<stop offset="0.47" stop-color="#AED026"/>
<stop offset="0.57" stop-color="#83C92B"/>
<stop offset="0.67" stop-color="#4EC132"/>
<stop offset="0.77" stop-color="#11B739"/>
<stop offset="0.79" stop-color="#00B53C"/>
</linearGradient>
<linearGradient id="paint13_linear_14_187" x1="2.43777" y1="25.8082" x2="49.2231" y2="52.8474" gradientUnits="userSpaceOnUse">
<stop offset="0.14" stop-color="#FBDC1D"/>
<stop offset="0.21" stop-color="#F6DB1D"/>
<stop offset="0.29" stop-color="#E7D81F"/>
<stop offset="0.38" stop-color="#CFD522"/>
<stop offset="0.47" stop-color="#AED026"/>
<stop offset="0.57" stop-color="#83C92B"/>
<stop offset="0.67" stop-color="#4EC132"/>
<stop offset="0.77" stop-color="#11B739"/>
<stop offset="0.79" stop-color="#00B53C"/>
</linearGradient>
<linearGradient id="paint14_linear_14_187" x1="2.43781" y1="25.8082" x2="49.2231" y2="52.8474" gradientUnits="userSpaceOnUse">
<stop offset="0.14" stop-color="#FBDC1D"/>
<stop offset="0.21" stop-color="#F6DB1D"/>
<stop offset="0.29" stop-color="#E7D81F"/>
<stop offset="0.38" stop-color="#CFD522"/>
<stop offset="0.47" stop-color="#AED026"/>
<stop offset="0.57" stop-color="#83C92B"/>
<stop offset="0.67" stop-color="#4EC132"/>
<stop offset="0.77" stop-color="#11B739"/>
<stop offset="0.79" stop-color="#00B53C"/>
</linearGradient>
<linearGradient id="paint15_linear_14_187" x1="2.43774" y1="25.8083" x2="49.223" y2="52.8474" gradientUnits="userSpaceOnUse">
<stop offset="0.14" stop-color="#FBDC1D"/>
<stop offset="0.21" stop-color="#F6DB1D"/>
<stop offset="0.29" stop-color="#E7D81F"/>
<stop offset="0.38" stop-color="#CFD522"/>
<stop offset="0.47" stop-color="#AED026"/>
<stop offset="0.57" stop-color="#83C92B"/>
<stop offset="0.67" stop-color="#4EC132"/>
<stop offset="0.77" stop-color="#11B739"/>
<stop offset="0.79" stop-color="#00B53C"/>
</linearGradient>
<linearGradient id="paint16_linear_14_187" x1="2.43775" y1="25.8082" x2="49.223" y2="52.8473" gradientUnits="userSpaceOnUse">
<stop offset="0.14" stop-color="#FBDC1D"/>
<stop offset="0.21" stop-color="#F6DB1D"/>
<stop offset="0.29" stop-color="#E7D81F"/>
<stop offset="0.38" stop-color="#CFD522"/>
<stop offset="0.47" stop-color="#AED026"/>
<stop offset="0.57" stop-color="#83C92B"/>
<stop offset="0.67" stop-color="#4EC132"/>
<stop offset="0.77" stop-color="#11B739"/>
<stop offset="0.79" stop-color="#00B53C"/>
</linearGradient>
</defs>
</svg>
